ModelForces
version=1
nRows=4
nColumns=206
inDegrees=no

This file contains the forces exerted on a model during a simulation.

A force is a generalized force, meaning that it can be either a force (N) or a torque (Nm).

Units are S.I. units (second, meters, Newtons, ...)
Angles are in degrees.

endheader
time	glut_med1_r	glut_med2_r	glut_med3_r	glut_min1_r	glut_min2_r	glut_min3_r	semimem_r	semiten_r	bifemlh_r	bifemsh_r	sar_r	add_long_r	add_brev_r	add_mag1_r	add_mag2_r	add_mag3_r	tfl_r	pect_r	grac_r	glut_max1_r	glut_max2_r	glut_max3_r	iliacus_r	psoas_r	quad_fem_r	gem_r	peri_r	rect_fem_r	vas_med_r	vas_int_r	vas_lat_r	med_gas_r	lat_gas_r	soleus_r	tib_post_r	flex_dig_r	flex_hal_r	tib_ant_r	per_brev_r	per_long_r	per_tert_r	ext_dig_r	ext_hal_r	glut_med1_l	glut_med2_l	glut_med3_l	glut_min1_l	glut_min2_l	glut_min3_l	semimem_l	semiten_l	bifemlh_l	bifemsh_l	sar_l	add_long_l	add_brev_l	add_mag1_l	add_mag2_l	add_mag3_l	tfl_l	pect_l	grac_l	glut_max1_l	glut_max2_l	glut_max3_l	iliacus_l	psoas_l	quad_fem_l	gem_l	peri_l	rect_fem_l	vas_med_l	vas_int_l	vas_lat_l	med_gas_l	lat_gas_l	soleus_l	tib_post_l	flex_dig_l	flex_hal_l	tib_ant_l	per_brev_l	per_long_l	per_tert_l	ext_dig_l	ext_hal_l	ercspn_r	ercspn_l	intobl_r	intobl_l	extobl_r	extobl_l	femur_lat_meniscii_l.femur_lat_l.force.X	femur_lat_meniscii_l.femur_lat_l.force.Y	femur_lat_meniscii_l.femur_lat_l.force.Z	femur_lat_meniscii_l.femur_lat_l.torque.X	femur_lat_meniscii_l.femur_lat_l.torque.Y	femur_lat_meniscii_l.femur_lat_l.torque.Z	femur_lat_meniscii_l.meniscus_lat_l.force.X	femur_lat_meniscii_l.meniscus_lat_l.force.Y	femur_lat_meniscii_l.meniscus_lat_l.force.Z	femur_lat_meniscii_l.meniscus_lat_l.torque.X	femur_lat_meniscii_l.meniscus_lat_l.torque.Y	femur_lat_meniscii_l.meniscus_lat_l.torque.Z	femur_med_meniscii_l.femur_med_l.force.X	femur_med_meniscii_l.femur_med_l.force.Y	femur_med_meniscii_l.femur_med_l.force.Z	femur_med_meniscii_l.femur_med_l.torque.X	femur_med_meniscii_l.femur_med_l.torque.Y	femur_med_meniscii_l.femur_med_l.torque.Z	femur_med_meniscii_l.meniscus_med_l.force.X	femur_med_meniscii_l.meniscus_med_l.force.Y	femur_med_meniscii_l.meniscus_med_l.force.Z	femur_med_meniscii_l.meniscus_med_l.torque.X	femur_med_meniscii_l.meniscus_med_l.torque.Y	femur_med_meniscii_l.meniscus_med_l.torque.Z	femur_lat_meniscii_r.femur_lat_r.force.X	femur_lat_meniscii_r.femur_lat_r.force.Y	femur_lat_meniscii_r.femur_lat_r.force.Z	femur_lat_meniscii_r.femur_lat_r.torque.X	femur_lat_meniscii_r.femur_lat_r.torque.Y	femur_lat_meniscii_r.femur_lat_r.torque.Z	femur_lat_meniscii_r.meniscus_lat_r.force.X	femur_lat_meniscii_r.meniscus_lat_r.force.Y	femur_lat_meniscii_r.meniscus_lat_r.force.Z	femur_lat_meniscii_r.meniscus_lat_r.torque.X	femur_lat_meniscii_r.meniscus_lat_r.torque.Y	femur_lat_meniscii_r.meniscus_lat_r.torque.Z	femur_med_meniscii_r.femur_med_r.force.X	femur_med_meniscii_r.femur_med_r.force.Y	femur_med_meniscii_r.femur_med_r.force.Z	femur_med_meniscii_r.femur_med_r.torque.X	femur_med_meniscii_r.femur_med_r.torque.Y	femur_med_meniscii_r.femur_med_r.torque.Z	femur_med_meniscii_r.meniscus_med_r.force.X	femur_med_meniscii_r.meniscus_med_r.force.Y	femur_med_meniscii_r.meniscus_med_r.force.Z	femur_med_meniscii_r.meniscus_med_r.torque.X	femur_med_meniscii_r.meniscus_med_r.torque.Y	femur_med_meniscii_r.meniscus_med_r.torque.Z	femur_med_tibia_l.tibia_upper_l.force.X	femur_med_tibia_l.tibia_upper_l.force.Y	femur_med_tibia_l.tibia_upper_l.force.Z	femur_med_tibia_l.tibia_upper_l.torque.X	femur_med_tibia_l.tibia_upper_l.torque.Y	femur_med_tibia_l.tibia_upper_l.torque.Z	femur_med_tibia_l.femur_med_l.force.X	femur_med_tibia_l.femur_med_l.force.Y	femur_med_tibia_l.femur_med_l.force.Z	femur_med_tibia_l.femur_med_l.torque.X	femur_med_tibia_l.femur_med_l.torque.Y	femur_med_tibia_l.femur_med_l.torque.Z	femur_lat_tibia_l.tibia_upper_l.force.X	femur_lat_tibia_l.tibia_upper_l.force.Y	femur_lat_tibia_l.tibia_upper_l.force.Z	femur_lat_tibia_l.tibia_upper_l.torque.X	femur_lat_tibia_l.tibia_upper_l.torque.Y	femur_lat_tibia_l.tibia_upper_l.torque.Z	femur_lat_tibia_l.femur_lat_l.force.X	femur_lat_tibia_l.femur_lat_l.force.Y	femur_lat_tibia_l.femur_lat_l.force.Z	femur_lat_tibia_l.femur_lat_l.torque.X	femur_lat_tibia_l.femur_lat_l.torque.Y	femur_lat_tibia_l.femur_lat_l.torque.Z	femur_med_tibia_r.tibia_upper_r.force.X	femur_med_tibia_r.tibia_upper_r.force.Y	femur_med_tibia_r.tibia_upper_r.force.Z	femur_med_tibia_r.tibia_upper_r.torque.X	femur_med_tibia_r.tibia_upper_r.torque.Y	femur_med_tibia_r.tibia_upper_r.torque.Z	femur_med_tibia_r.femur_med_r.force.X	femur_med_tibia_r.femur_med_r.force.Y	femur_med_tibia_r.femur_med_r.force.Z	femur_med_tibia_r.femur_med_r.torque.X	femur_med_tibia_r.femur_med_r.torque.Y	femur_med_tibia_r.femur_med_r.torque.Z	femur_lat_tibia_r.tibia_upper_r.force.X	femur_lat_tibia_r.tibia_upper_r.force.Y	femur_lat_tibia_r.tibia_upper_r.force.Z	femur_lat_tibia_r.tibia_upper_r.torque.X	femur_lat_tibia_r.tibia_upper_r.torque.Y	femur_lat_tibia_r.tibia_upper_r.torque.Z	femur_lat_tibia_r.femur_lat_r.force.X	femur_lat_tibia_r.femur_lat_r.force.Y	femur_lat_tibia_r.femur_lat_r.force.Z	femur_lat_tibia_r.femur_lat_r.torque.X	femur_lat_tibia_r.femur_lat_r.torque.Y	femur_lat_tibia_r.femur_lat_r.torque.Z	aACL_R	pACL_R	aPCL_R	pPCL_R	aMCL_R	mMCL_R	pMCL_R	aLCL_R	mLCL_R	pLCL_R	aPCL_L	pPCL_L	aMCL_L	aLCL_L	ground_prescribedForce_-20_fx	ground_prescribedForce_-20_fy	ground_prescribedForce_-20_fz
      0.52469148	      7.58224117	      5.68937992	      6.09032078	      2.66955182	      3.19042886	      3.20721699	      6.55426622	      4.09931853	      7.15931973	      7.01687120	      0.00000000	      5.63696229	      4.15629947	      2.93100633	      2.46412192	      4.00617589	      4.35958594	      2.24770888	      1.55421808	      3.67130705	      5.57922349	      4.16506828	     22.69044043	     13.01501867	      3.64146966	      2.86123995	      4.11785323	     11.88119172	      9.41684507	      9.76108104	     12.83951236	      2.77606200	      1.73191369	      9.32875176	     11.47788364	      2.79106715	      2.27482809	     14.58614155	      3.92726753	      7.78917084	     10.65276045	      7.61682970	      2.15366968	      7.58224117	      5.68937992	      6.09032078	      2.66955182	      3.19042886	      3.20721699	      8.79524400	      4.10160662	      7.72447677	      7.24547710	      1.52578321	      5.63696229	      9.27688411	      2.93100633	      2.46412192	      4.00617589	      4.10859587	      2.24770888	      1.56500469	      3.67130705	      5.57922349	      4.16506828	     22.69044043	     13.01501867	      3.64146966	      2.86123995	      4.11785323	     10.72380964	      6.62080226	      7.59521433	      8.16672674	     14.08081151	      6.53815092	     31.29779597	     42.44179568	      2.74368708	      2.92729368	      8.49440857	      4.35962085	     12.50924448	      2.01335709	      5.31592853	      1.68892765	     25.10665908	     25.10665908	      9.03938045	      9.03938045	     26.83998243	     26.83998243	      2.76307435	     50.99597937	     -9.56042239	      5.21997485	     -0.02578839	      1.48581788	     -2.76307435	    -50.99597937	      9.56042239	     -1.74637766	      0.02558040	     -0.48301696	     -3.31599387	     20.97615968	     -3.40468921	      0.94473225	     -0.02138609	     -1.00501789	      3.31599387	    -20.97615968	      3.40468921	      0.28075727	      0.00368718	     -0.29758878	     41.34275598	     69.57620131	     21.65654688	    -10.65317893	      0.98251874	     17.16062295	    -41.34275598	    -69.57620131	    -21.65654688	      2.43493747	     -1.25720803	     -0.58934821	     57.80641312	     55.95548237	      1.49648947	      0.54613551	     -1.19232130	     23.89684882	    -57.80641312	    -55.95548237	     -1.49648947	     -1.01264100	      1.06442063	     -1.09431422	      0.00000000	      0.00000000	      0.00000000	      0.00000000	      0.00000000	      0.00000000	      0.00000000	      0.00000000	      0.00000000	      0.00000000	      0.00000000	      0.00000000	      0.00000000	      0.00000000	      0.00000000	      0.00000000	      0.00000000	      0.00000000	      0.00000000	      0.00000000	      0.00000000	      0.00000000	      0.00000000	      0.00000000	      0.00000000	      0.00000000	      0.00000000	      0.00000000	      0.00000000	      0.00000000	      0.00000000	      0.00000000	      0.00000000	      0.00000000	      0.00000000	      0.00000000	      0.00000000	      0.00000000	      0.00000000	      0.00000000	      0.00000000	      0.00000000	      0.00000000	      0.00000000	      0.00000000	      0.00000000	      0.00000000	      0.00000000	     24.95800232	     42.75429964	      0.00000000	     13.49503971	      0.00000000	      3.74352621	      5.71946575	      5.88463429	      0.00000000	      0.00000000	      0.00000000	      0.00000000	      0.00000001	      0.00000000	    103.36618800	    -37.62220000	      0.00000000
      0.52547322	      7.58187328	      5.68912647	      6.09004611	      2.66943794	      3.19030568	      3.20706169	      6.55768084	      4.10097845	      7.15753351	      7.02164696	      0.00000000	      5.63670825	      4.15685385	      2.93087672	      2.46401036	      4.00597495	      4.35870427	      2.24761239	      1.55566434	      3.67114364	      5.57897440	      4.16487892	     22.68998089	     13.01450191	      3.64131094	      2.86116567	      4.11755716	     11.88248380	      9.42750570	      9.76972161	     12.84796740	      2.78007694	      1.73465997	      9.34095476	     11.47320446	      2.79812681	      2.26544984	     14.58720177	      3.93253595	      7.80126485	     10.65749146	      7.61923883	      2.16077907	      7.58187328	      5.68912647	      6.09004611	      2.66943794	      3.19030568	      3.20706169	      8.79470796	      4.10140952	      7.72403084	      7.24516111	      1.52571842	      5.63670825	      0.00000000	      2.93087672	      2.46401036	      4.00597495	      4.10847161	      2.24761239	      1.56493708	      3.67114364	      5.57897440	      4.16487892	     22.68998089	     13.01450191	      3.64131094	      2.86116567	      4.11755716	     10.72320276	      6.62050060	      7.59486158	      8.16634938	     14.07948327	      6.53753317	     31.29555142	     42.44091751	      2.74308135	      2.92689215	      8.49395195	      4.35934708	     12.50858228	      2.01327692	      5.31582601	      1.68889927	     25.10558563	     25.10558563	      9.03895956	      9.03895956	     26.83960437	     26.83960437	      2.76307435	     50.99597937	     -9.56042239	      5.21997485	     -0.02578839	      1.48581788	     -2.76307435	    -50.99597937	      9.56042239	     -1.74637766	      0.02558040	     -0.48301696	     -3.31599387	     20.97615968	     -3.40468921	      0.94473225	     -0.02138609	     -1.00501789	      3.31599387	    -20.97615968	      3.40468921	      0.28075727	      0.00368718	     -0.29758878	     41.02243851	     69.61482113	     21.60259117	    -10.63131100	      0.97593848	     17.02577620	    -41.02243851	    -69.61482113	    -21.60259117	      2.43384520	     -1.24947134	     -0.57765779	     57.79332400	     55.93025421	      1.48364237	      0.55102766	     -1.19222314	     23.89163255	    -57.79332400	    -55.93025421	     -1.48364237	     -1.01270838	      1.06454518	     -1.09427562	      0.00000000	      0.00000000	      0.00000000	      0.00000000	      0.00000000	      0.00000000	      0.00000000	      0.00000000	      0.00000000	      0.00000000	      0.00000000	      0.00000000	      0.00000000	      0.00000000	      0.00000000	      0.00000000	      0.00000000	      0.00000000	      0.00000000	      0.00000000	      0.00000000	      0.00000000	      0.00000000	      0.00000000	      0.00000000	      0.00000000	      0.00000000	      0.00000000	      0.00000000	      0.00000000	      0.00000000	      0.00000000	      0.00000000	      0.00000000	      0.00000000	      0.00000000	      0.00000000	      0.00000000	      0.00000000	      0.00000000	      0.00000000	      0.00000000	      0.00000000	      0.00000000	      0.00000000	      0.00000000	      0.00000000	      0.00000000	     24.97236876	     42.77080435	      0.00000000	     13.43712756	      0.00000000	      3.71190621	      5.68775999	      5.79987799	      0.00000000	      0.00000000	      0.00000000	      0.00000000	      0.00000001	      0.00000000	    103.36618800	    -37.62220000	      0.00000000
      0.52568437	      7.58177454	      5.68905845	      6.08997239	      2.66940738	      3.19027262	      3.20702001	      6.55854243	      4.10138546	      7.15699623	      7.02244231	      0.00000000	      5.63664007	      4.15688861	      2.93084194	      2.46398042	      4.00592102	      4.35844313	      2.24758649	      1.55597248	      3.67109978	      5.57890754	      4.16482809	     22.68985755	     13.01436322	      3.64126834	      2.86114573	      4.11747769	     11.88275927	      9.43020864	      9.77185951	     12.85009144	      2.78095857	      1.73534211	      9.34416350	     11.47203584	      2.79996796	      2.26288977	     14.58750968	      3.93392240	      7.80449699	     10.65881412	      7.62020424	      2.16272320	      7.58177454	      5.68905845	      6.08997239	      2.66940738	      3.19027262	      3.20702001	      8.79456409	      4.10135662	      7.72391116	      7.24507630	      1.52570103	      5.63664007	      1.27341399	      2.93084194	      2.46398042	      4.00592102	      4.10843826	      2.24758649	      1.56491894	      3.67109978	      5.57890754	      4.16482809	     22.68985755	     13.01436322	      3.64126834	      2.86114573	      4.11747769	     10.72303989	      6.62041963	      7.59476691	      8.16624810	     14.07912671	      6.53736733	     31.29494899	     42.44068182	      2.74291798	      2.92678398	      8.49382940	      4.35927361	     12.50840454	      2.01325541	      5.31579896	      1.68889179	     25.10529754	     25.10529754	      9.03884660	      9.03884660	     26.83950290	     26.83950290	      2.76307435	     50.99597937	     -9.56042239	      5.21997485	     -0.02578839	      1.48581788	     -2.76307435	    -50.99597937	      9.56042239	     -1.74637766	      0.02558040	     -0.48301696	     -3.31599387	     20.97615968	     -3.40468921	      0.94473225	     -0.02138609	     -1.00501789	      3.31599387	    -20.97615968	      3.40468921	      0.28075727	      0.00368718	     -0.29758878	     41.04199389	     69.62760911	     21.60560210	    -10.63285646	      0.97636322	     17.03399389	    -41.04199389	    -69.62760911	    -21.60560210	      2.43422249	     -1.24995101	     -0.57819009	     57.79514405	     55.92160643	      1.48530953	      0.55014648	     -1.19228767	     23.89248049	    -57.79514405	    -55.92160643	     -1.48530953	     -1.01250944	      1.06461311	     -1.09447154	      0.00000000	      0.00000000	      0.00000000	      0.00000000	      0.00000000	      0.00000000	      0.00000000	      0.00000000	      0.00000000	      0.00000000	      0.00000000	      0.00000000	      0.00000000	      0.00000000	      0.00000000	      0.00000000	      0.00000000	      0.00000000	      0.00000000	      0.00000000	      0.00000000	      0.00000000	      0.00000000	      0.00000000	      0.00000000	      0.00000000	      0.00000000	      0.00000000	      0.00000000	      0.00000000	      0.00000000	      0.00000000	      0.00000000	      0.00000000	      0.00000000	      0.00000000	      0.00000000	      0.00000000	      0.00000000	      0.00000000	      0.00000000	      0.00000000	      0.00000000	      0.00000000	      0.00000000	      0.00000000	      0.00000000	      0.00000000	     24.97660650	     42.77568425	      0.00000000	     13.42456092	      0.00000000	      3.70559360	      5.68145191	      5.78073195	      0.00000000	      0.00000000	      0.00000000	      0.00000000	      0.00000001	      0.00000000	    103.36618800	    -37.62220000	      0.00000000
      0.52674013	      7.58128488	      5.68872111	      6.08960679	      2.66925580	      3.19010866	      3.20681331	      6.56257636	      4.10322625	      7.15410041	      7.02437922	      0.00000000	      5.63630194	      4.15685034	      2.93066942	      2.46383193	      4.00565357	      4.35705298	      2.24745806	      1.55714646	      3.67088228	      5.57857600	      4.16457605	     22.68924589	     13.01367541	      3.64105708	      2.86104686	      4.11708357	     11.88383050	      9.44281000	      9.78159752	     12.85991768	      2.78460475	      1.73856256	      9.36014941	     11.46692122	      2.80876942	      2.24994460	     14.58908426	      3.94059674	      7.82041497	     10.66541576	      7.62695659	      2.17256086	      7.58128488	      5.68872111	      6.08960679	      2.66925580	      3.19010866	      3.20681331	      8.79385060	      4.10109427	      7.72331762	      7.24465571	      1.52561479	      5.63630194	      3.69436758	      2.93066942	      2.46383193	      4.00565357	      4.10827287	      2.24745806	      1.56482895	      3.67088228	      5.57857600	      4.16457605	     22.68924589	     13.01367541	      3.64105708	      2.86104686	      4.11708357	     10.72223212	      6.62001811	      7.59429739	      8.16574582	     14.07735776	      6.53654461	     31.29196112	     42.43951289	      2.74210265	      2.92624489	      8.49322162	      4.35890921	     12.50752291	      2.01314871	      5.31566771	      1.68885555	     25.10386875	     25.10386875	      9.03828639	      9.03828639	     26.83899969	     26.83899969	      2.76307435	     50.99597937	     -9.56042239	      5.21997485	     -0.02578839	      1.48581788	     -2.76307435	    -50.99597937	      9.56042239	     -1.74637766	      0.02558040	     -0.48301696	     -3.31599387	     20.97615968	     -3.40468921	      0.94473225	     -0.02138609	     -1.00501789	      3.31599387	    -20.97615968	      3.40468921	      0.28075727	      0.00368718	     -0.29758878	     41.13183882	     69.71903329	     21.64244953	    -10.65037444	      0.97839774	     17.07163907	    -41.13183882	    -69.71903329	    -21.64244953	      2.43754759	     -1.25244088	     -0.58022057	     57.72296583	     55.95662945	      1.42729966	      0.57559780	     -1.19049544	     23.86218485	    -57.72296583	    -55.95662945	     -1.42729966	     -1.01561566	      1.06358745	     -1.09157829	      0.00000000	      0.00000000	      0.00000000	      0.00000000	      0.00000000	      0.00000000	      0.00000000	      0.00000000	      0.00000000	      0.00000000	      0.00000000	      0.00000000	      0.00000000	      0.00000000	      0.00000000	      0.00000000	      0.00000000	      0.00000000	      0.00000000	      0.00000000	      0.00000000	      0.00000000	      0.00000000	      0.00000000	      0.00000000	      0.00000000	      0.00000000	      0.00000000	      0.00000000	      0.00000000	      0.00000000	      0.00000000	      0.00000000	      0.00000000	      0.00000000	      0.00000000	      0.00000000	      0.00000000	      0.00000000	      0.00000000	      0.00000000	      0.00000000	      0.00000000	      0.00000000	      0.00000000	      0.00000000	      0.00000000	      0.00000000	     24.96150453	     42.76298303	      0.00000000	     13.33457724	      0.00000000	      3.62327051	      5.60014519	      5.64556665	      0.00000000	      0.00000000	      0.00000000	      0.00000000	      0.00000001	      0.00000000	    103.36618800	    -37.62220000	      0.00000000
